<svg width="50" height="78" viewBox="0 0 50 78" fill="none" xmlns="http://www.w3.org/2000/svg">
<path d="M44.4444 0H5.55556C4.08213 0 2.66905 0.585316 1.62719 1.62718C0.585317 2.66905 0 4.08213 0 5.55556V72.2222C0 73.6957 0.585317 75.1087 1.62719 76.1506C2.66905 77.1925 4.08213 77.7778 5.55556 77.7778H44.4444C45.9179 77.7778 47.3309 77.1925 48.3728 76.1506C49.4147 75.1087 50 73.6957 50 72.2222V5.55556C50 4.08213 49.4147 2.66905 48.3728 1.62718C47.3309 0.585316 45.9179 0 44.4444 0V0ZM5.55556 5.55556H44.4444V55.5556H5.55556V5.55556ZM5.55556 72.2222V61.1111H44.4444V72.2222H5.55556Z" fill="#211F2C"/>
<path d="M22.2222 63.8889H27.7778V69.4445H22.2222V63.8889Z" fill="#211F2C"/>
</svg>
