<svg width="40" height="40" viewBox="0 0 40 40" fill="none" xmlns="http://www.w3.org/2000/svg">
<path d="M32.2712 16.4387C32.4124 16.4338 32.5532 16.4574 32.685 16.5081C32.8169 16.5588 32.9372 16.6355 33.0388 16.7336C33.1404 16.8318 33.2212 16.9494 33.2764 17.0794C33.3316 17.2095 33.36 17.3493 33.36 17.4906C33.36 17.6318 33.3316 17.7717 33.2764 17.9017C33.2212 18.0318 33.1404 18.1494 33.0388 18.2475C32.9372 18.3457 32.8169 18.4224 32.685 18.473C32.5532 18.5237 32.4124 18.5473 32.2712 18.5424H29.3475V20.4174H32.2712C32.4133 20.4105 32.5552 20.4325 32.6885 20.4821C32.8218 20.5316 32.9436 20.6078 33.0466 20.7058C33.1496 20.8039 33.2316 20.9219 33.2876 21.0526C33.3436 21.1833 33.3725 21.324 33.3725 21.4662C33.3725 21.6084 33.3436 21.7491 33.2876 21.8798C33.2316 22.0105 33.1496 22.1285 33.0466 22.2266C32.9436 22.3246 32.8218 22.4008 32.6885 22.4503C32.5552 22.4999 32.4133 22.5219 32.2712 22.5149H28.3C28.0224 22.514 27.7565 22.4031 27.5604 22.2065C27.3643 22.01 27.2541 21.7438 27.2537 21.4662V13.5162C27.2537 12.9374 27.7225 12.4625 28.3 12.4625H32.2788C32.5487 12.4764 32.8029 12.5936 32.9887 12.7899C33.1745 12.9862 33.2777 13.2464 33.2769 13.5167C33.2761 13.787 33.1714 14.0466 32.9844 14.2417C32.7974 14.4369 32.5425 14.5526 32.2725 14.5649H29.3488V16.4399L32.2712 16.4387ZM25.8538 21.465C25.8514 21.7433 25.7393 22.0096 25.5417 22.2057C25.3442 22.4019 25.0772 22.5121 24.7988 22.5124C24.6339 22.5141 24.4709 22.4773 24.3228 22.405C24.1746 22.3328 24.0453 22.2271 23.945 22.0962L19.8762 16.5624V21.4637C19.8762 21.7418 19.7658 22.0086 19.5691 22.2053C19.3724 22.402 19.1056 22.5124 18.8275 22.5124C18.5494 22.5124 18.2826 22.402 18.0859 22.2053C17.8892 22.0086 17.7787 21.7418 17.7787 21.4637V13.5137C17.7787 13.0649 18.0725 12.6624 18.495 12.5187C18.5993 12.4818 18.7094 12.4636 18.82 12.4649C19.145 12.4649 19.445 12.6412 19.6462 12.8887L23.7475 18.4349V13.5137C23.7475 12.9349 24.2162 12.46 24.7962 12.46C25.3762 12.46 25.8512 12.9349 25.8512 13.5137L25.8538 21.465ZM16.2838 21.465C16.2824 21.7438 16.1707 22.0107 15.9729 22.2073C15.7752 22.4038 15.5076 22.514 15.2287 22.5137C14.952 22.5114 14.6874 22.3999 14.4924 22.2035C14.2974 22.0071 14.1878 21.7417 14.1875 21.465V13.5149C14.1875 12.9362 14.6562 12.4612 15.2362 12.4612C15.815 12.4612 16.285 12.9362 16.285 13.5149L16.2838 21.465ZM12.175 22.5137H8.19625C7.91773 22.5131 7.6507 22.4025 7.45317 22.2062C7.25564 22.0098 7.14355 21.7435 7.14125 21.465V13.5149C7.14125 12.9362 7.61625 12.4612 8.19625 12.4612C8.77625 12.4612 9.245 12.9362 9.245 13.5149V20.4162H12.175C12.4531 20.4162 12.7199 20.5267 12.9166 20.7234C13.1133 20.92 13.2238 21.1868 13.2238 21.465C13.2238 21.7431 13.1133 22.0098 12.9166 22.2065C12.7199 22.4032 12.4531 22.5137 12.175 22.5137ZM40 17.1862C40 8.23495 31.0212 0.949951 20 0.949951C8.97875 0.949951 0 8.23495 0 17.1862C0 25.2074 7.11625 31.9262 16.725 33.2024C17.3762 33.3387 18.2612 33.6325 18.49 34.1862C18.6912 34.6862 18.62 35.4612 18.555 35.9899L18.2812 37.6887C18.2025 38.1899 17.8775 39.6624 20.0262 38.7637C22.1812 37.8649 31.5562 31.9674 35.755 27.1349C38.6263 23.9912 40 20.7612 40 17.1862Z" fill="white"/>
</svg>
