<svg width="94" height="107" viewBox="0 0 94 107" fill="none" xmlns="http://www.w3.org/2000/svg">
<path d="M86.6667 0H6.66667C4.89856 0 3.20286 0.702379 1.95262 1.95262C0.702379 3.20286 0 4.89856 0 6.66667V100C0 101.768 0.702379 103.464 1.95262 104.714C3.20286 105.964 4.89856 106.667 6.66667 106.667H86.6667C88.4348 106.667 90.1305 105.964 91.3807 104.714C92.631 103.464 93.3333 101.768 93.3333 100V6.66667C93.3333 4.89856 92.631 3.20286 91.3807 1.95262C90.1305 0.702379 88.4348 0 86.6667 0ZM50 100H43.3333V93.3333H50V100ZM6.66667 86.6667V6.66667H86.6667V86.6667H6.66667Z" fill="#211F2C"/>
</svg>
