<svg width="138" height="113" viewBox="0 0 138 113" fill="none" xmlns="http://www.w3.org/2000/svg">
<path d="M18.75 93.75H118.75C125.625 93.75 131.187 88.125 131.187 81.25L131.25 12.5C131.25 5.625 125.625 0 118.75 0H18.75C11.875 0 6.25 5.625 6.25 12.5V81.25C6.25 88.125 11.875 93.75 18.75 93.75ZM18.75 12.5H118.75V81.25H18.75V12.5ZM0 106.25C0 109.688 2.8125 112.5 6.25 112.5H131.25C134.688 112.5 137.5 109.688 137.5 106.25C137.5 102.812 134.688 100 131.25 100H6.25C2.8125 100 0 102.812 0 106.25Z" fill="#211F2C"/>
</svg>
